<svg xmlns="http://www.w3.org/2000/svg" xmlns:xlink="http://www.w3.org/1999/xlink" viewBox="0 0 186.44 249.84"><defs><style>.cls-1,.cls-14,.cls-16,.cls-21,.cls-24,.cls-25,.cls-26,.cls-27,.cls-28,.cls-29,.cls-30,.cls-32,.cls-33,.cls-35,.cls-7{fill:none;}.cls-2{clip-path:url(#clip-path);}.cls-18,.cls-19,.cls-3,.cls-34{fill:#ce0e2d;}.cls-11,.cls-12,.cls-14,.cls-15,.cls-16,.cls-17,.cls-18,.cls-19,.cls-20,.cls-21,.cls-24,.cls-25,.cls-26,.cls-27,.cls-3,.cls-30,.cls-35,.cls-9{stroke:#004a98;}.cls-11,.cls-12,.cls-14,.cls-15,.cls-16,.cls-17,.cls-18,.cls-19,.cls-20,.cls-21,.cls-24,.cls-25,.cls-3,.cls-30,.cls-9{stroke-linejoin:round;}.cls-14,.cls-3{stroke-width:0.6px;}.cls-4{clip-path:url(#clip-path-2);}.cls-10,.cls-15,.cls-5{fill:#004a98;}.cls-11,.cls-17,.cls-6,.cls-9{fill:#231f20;}.cls-28,.cls-29,.cls-7{stroke:#fff;}.cls-10,.cls-26,.cls-27,.cls-28,.cls-29,.cls-32,.cls-33,.cls-35,.cls-7{stroke-miterlimit:10;}.cls-7{stroke-width:2px;}.cls-8{fill:#fff;}.cls-14,.cls-15,.cls-16,.cls-17,.cls-18,.cls-19,.cls-20,.cls-21,.cls-30,.cls-32,.cls-33,.cls-35,.cls-9{stroke-linecap:round;}.cls-11,.cls-12,.cls-19,.cls-21,.cls-25,.cls-32,.cls-33,.cls-9{stroke-width:0.75px;}.cls-10{stroke:#ffcd00;}.cls-12,.cls-20,.cls-23{fill:#ffcd00;}.cls-13{clip-path:url(#clip-path-3);}.cls-16{stroke-width:0.5px;}.cls-22{clip-path:url(#clip-path-4);}.cls-26{stroke-width:8px;}.cls-27{stroke-width:6px;}.cls-28,.cls-29{stroke-width:6.2px;}.cls-29{stroke-dasharray:1.95 2.92;}.cls-31{clip-path:url(#clip-path-5);}.cls-32,.cls-33{stroke:#231f20;}.cls-33{stroke-dasharray:1 2;}.cls-35{stroke-width:1.25px;}</style><clipPath id="clip-path" transform="translate(8.51 5.3)"><rect class="cls-1" x="15.21" width="139" height="237.14"/></clipPath><clipPath id="clip-path-2" transform="translate(8.51 5.3)"><polygon id="SVGID" class="cls-1" points="169.42 163.56 135.35 168.67 89.37 95.08 125.06 82.13 169.42 163.56"/></clipPath><clipPath id="clip-path-3" transform="translate(8.51 5.3)"><polygon class="cls-1" points="0 75.68 34.07 70.58 80.04 144.17 44.35 157.12 0 75.68"/></clipPath><clipPath id="clip-path-4" transform="translate(8.51 5.3)"><polygon class="cls-1" points="63.38 76.4 84.89 76.72 89.36 80.93 98.37 84.36 120.23 85.14 141.62 102.17 87.39 102.17 68.73 92.97 65 83.26 63.38 76.4"/></clipPath><clipPath id="clip-path-5" transform="translate(8.51 5.3)"><polygon class="cls-1" points="106.03 162.84 84.52 162.53 80.06 158.31 71.05 154.88 49.19 154.1 27.79 137.08 82.03 137.08 100.68 146.27 104.41 155.99 106.03 162.84"/></clipPath></defs><title>Asset 10</title><g id="Layer_2" data-name="Layer 2"><g id="Layer_1-2" data-name="Layer 1"><g class="cls-2"><polygon class="cls-3" points="166.04 119.62 165.63 119.31 165.67 110.51 155.87 111.84 146.21 104.46 69.02 71.93 21.08 79.09 20.82 130.16 20.4 130.22 20.82 130.53 20.77 139.33 30.58 138 40.23 145.38 117.42 177.91 165.37 170.75 165.63 119.68 166.04 119.62"/><g class="cls-4"><polygon class="cls-5" points="104.79 102.24 129.73 95.47 182.04 174.68 155.04 177.03 104.79 102.24"/><path class="cls-6" d="M120.13,93.06l49,74.19-21.35,1.86L100.3,98.44l19.83-5.38m2.18-5.77-3.49.94L99,93.62l-6.73,1.82,3.89,5.79,47.48,70.67,1.64,2.45,2.94-.25,21.35-1.87,8.37-.72-4.63-7-49-74.2-2-3Z" transform="translate(8.51 5.3)"/><path class="cls-5" d="M119.25,95.37l46.36,70.18L148.78,167,103.51,99.64l15.74-4.27m.88-2.31L100.3,98.44l47.48,70.67,21.35-1.86-49-74.19Z" transform="translate(8.51 5.3)"/><polygon class="cls-7" points="128.64 98.36 177.64 172.55 156.29 174.41 108.81 103.74 128.64 98.36"/></g><path class="cls-8" d="M143.32,140.71c1.62,2.84,4.22,4.38,4.18,6.48a2.31,2.31,0,0,1-2.14,2.47c-1.38,0-2.07-1.39-2-3.15h-.23c0,1.75-.78,3.08-2.13,3.06a2.3,2.3,0,0,1-2.07-2.54C138.94,144.92,141.57,143.48,143.32,140.71Z" transform="translate(8.51 5.3)"/><path class="cls-8" d="M115.9,110.66c-1.61-2.84-4.22-4.38-4.17-6.49a2.3,2.3,0,0,1,2.14-2.46c1.37,0,2.07,1.39,2,3.15h.23c0-1.75.78-3.08,2.13-3.06a2.29,2.29,0,0,1,2.07,2.54C120.29,106.45,117.65,107.89,115.9,110.66Z" transform="translate(8.51 5.3)"/><path class="cls-8" d="M124.34,123.3c-1.61-2.84-4.21-4.38-4.17-6.49a2.3,2.3,0,0,1,2.14-2.46c1.38,0,2.07,1.39,2,3.15h.24c0-1.75.78-3.09,2.13-3.06a2.29,2.29,0,0,1,2.06,2.54C128.73,119.09,126.1,120.53,124.34,123.3Z" transform="translate(8.51 5.3)"/><path class="cls-8" d="M150.57,151.55c1.61,2.83,4.21,4.38,4.17,6.48a2.31,2.31,0,0,1-2.14,2.47c-1.38,0-2.07-1.39-2-3.15h-.24c0,1.75-.78,3.08-2.13,3.06a2.3,2.3,0,0,1-2.07-2.54C146.18,155.75,148.81,154.32,150.57,151.55Z" transform="translate(8.51 5.3)"/><polygon class="cls-9" points="165.67 88.21 167.65 121.69 125.92 88.18 165.67 88.21"/><polygon class="cls-10" points="165.73 89.13 125.61 89.13 127.33 94.3 167.95 94.59 165.73 89.13"/><rect class="cls-8" x="120.37" y="84.97" width="2.91" height="2.91" transform="translate(105.3 -55.53) rotate(45)"/><rect class="cls-8" x="124.69" y="84.97" width="2.91" height="2.91" transform="translate(106.57 -58.58) rotate(45)"/><rect class="cls-8" x="129" y="84.97" width="2.91" height="2.91" transform="translate(107.83 -61.64) rotate(45)"/><rect class="cls-8" x="133.32" y="84.97" width="2.91" height="2.91" transform="translate(109.1 -64.69) rotate(45)"/><rect class="cls-8" x="137.64" y="84.97" width="2.91" height="2.91" transform="translate(110.36 -67.74) rotate(45)"/><rect class="cls-8" x="141.96" y="84.97" width="2.91" height="2.91" transform="translate(111.63 -70.8) rotate(45)"/><rect class="cls-8" x="146.27" y="84.97" width="2.91" height="2.91" transform="translate(112.89 -73.85) rotate(45)"/><rect class="cls-8" x="150.59" y="84.97" width="2.91" height="2.91" transform="translate(114.16 -76.9) rotate(45)"/><polygon class="cls-11" points="50 30.36 41.81 75.98 57.55 73.62 57.19 44.01 50 30.36"/><polygon class="cls-12" points="51.93 40.27 54.42 41.7 50.09 74.76 44.39 75.61 51.93 40.27"/><g class="cls-13"><polygon class="cls-5" points="4.4 75.16 31.4 72.81 81.65 147.6 56.72 154.37 4.4 75.16"/><path class="cls-6" d="M21.64,70.13,69.12,140.8l-19.83,5.38L.29,72l21.35-1.86m2.5-5.24-2.94.26L-.15,67l-8.36.73,4.62,7,49,74.19,2,3,3.49-1,19.83-5.38,6.73-1.83L73.27,138,25.79,67.34l-1.65-2.45Z" transform="translate(8.51 5.3)"/><path class="cls-5" d="M20.64,72.22,65.9,139.6l-15.74,4.28L3.81,73.69l16.83-1.47m1-2.09L.29,72l49,74.19,19.83-5.38L21.64,70.13Z" transform="translate(8.51 5.3)"/><polygon class="cls-7" points="57.8 151.48 8.8 77.29 30.15 75.43 77.63 146.1 57.8 151.48"/></g><path class="cls-11" d="M60.51,66.63,72,57.17l14.75,3.12c2.82,10.17,14.5,16.11,14.5,16.11l3.42,0,9,6.43h3.74L137.7,99.16c-41.81,0-64.94,5.53-73.13-24.4Z" transform="translate(8.51 5.3)"/><polygon class="cls-12" points="104.36 25.96 104.4 21.33 98.57 20.2 94.35 13.89 80.23 16.74 68.55 12.92 65.25 17.29 58.11 17.38 50.09 30.08 51.75 39.82 59.36 45.19 58.86 51.16 65.03 52.86 68.9 60.2 104.36 25.96"/><path class="cls-14" d="M95.93,20.93a25.11,25.11,0,0,1,1.55,4.89C98,28.49,97.22,34,97.22,34s4.72,6.9,6.33,8.15-1.24,3.13-1.78,3.3a6.2,6.2,0,0,1-2.5.36,2.94,2.94,0,0,0-.63.89" transform="translate(8.51 5.3)"/><path class="cls-15" d="M69.93,56.33c4.29,0,7.23-2.59,7.23-7.58,0-3-1.53-6-4.33-6Z" transform="translate(8.51 5.3)"/><path class="cls-14" d="M100.92,53.74s1.45,3.5,1.27,5.29-2.71,2.89-3,3a13.83,13.83,0,0,1-3.66,0c-.89-.23-18.68-3.83-18.68-3.83s-6.44-1.38-6.89-1.86" transform="translate(8.51 5.3)"/><line class="cls-14" x1="109.3" y1="51.14" x2="109.43" y2="54.58"/><path class="cls-5" d="M96,31.1c-.65-.16-1.23-.38-1.78-.52a6.26,6.26,0,0,0-1.58-.19,10.75,10.75,0,0,0-1.67.17,14.81,14.81,0,0,0-1.66.48A35.33,35.33,0,0,0,86,32.47c-.54.28-1.09.56-1.65.82s-1.1.56-1.69.8l0,0s0,0,0,0a19.54,19.54,0,0,1,2.72-2.66,15.28,15.28,0,0,1,3.27-2.08,8.87,8.87,0,0,1,4.08-.93,3.64,3.64,0,0,1,2.17.87A3.53,3.53,0,0,1,96,31.1Z" transform="translate(8.51 5.3)"/><path class="cls-5" d="M100.67,53.84c1.17,0,2.06-.15,2.2-.77s-.43-2-1.17-1.72a31.22,31.22,0,0,1-4.53.89c3.86-.72,5-1,5.07-1.78s-.27-.91-.8-1.37h-.73c-3.47,3.06-5.56,2.49-6.57,4.2C95.88,52.47,99.5,53.84,100.67,53.84Z" transform="translate(8.51 5.3)"/><path class="cls-16" d="M93.16,53.38c.22.69.58,1,1.07.92" transform="translate(8.51 5.3)"/><path class="cls-14" d="M97.22,44.24s-1.26,1-.66,2" transform="translate(8.51 5.3)"/><path class="cls-17" d="M60.38,54.9l-3.86-7.34c19-11.24,33.53-32.66,33.53-32.66L95.89,16l0,4.63Z" transform="translate(8.51 5.3)"/><polygon class="cls-18" points="104.36 25.96 68.9 60.2 67.71 57.94 104.39 22.67 104.36 25.96"/><path class="cls-18" d="M56.52,47.56c19-11.24,33.53-32.66,33.53-32.66l-2-1.55S73.54,34.77,54.48,46Z" transform="translate(8.51 5.3)"/><path class="cls-19" d="M90.05,14.9,85.84,8.59A173.6,173.6,0,0,0,72.4,23Z" transform="translate(8.51 5.3)"/><path class="cls-19" d="M51.11,39.28l-.76,6.58,6.17,1.7A122.8,122.8,0,0,1,72.4,23S52.84,34.11,51.11,39.28Z" transform="translate(8.51 5.3)"/><polygon class="cls-19" points="65.03 17.41 51.93 36.56 44.39 75.61 37.24 76.68 50.09 30.08 65.25 17.29 65.03 17.41"/><path class="cls-19" d="M43.42,34.79C61.7,30.33,71.71,11.44,71.71,11.44L65.49,8.8S53.59,26.85,43.42,35" transform="translate(8.51 5.3)"/><polygon class="cls-20" points="81.34 48.01 78.81 62.16 68.9 60.2 81.34 48.01"/><line class="cls-16" x1="105.31" y1="78.75" x2="85.68" y2="78.85"/><line class="cls-16" x1="101.97" y1="76.02" x2="87.62" y2="76.12"/><line class="cls-16" x1="99.41" y1="73.29" x2="88.45" y2="73.4"/><line class="cls-16" x1="97.56" y1="70.56" x2="88.47" y2="70.67"/><line class="cls-16" x1="96.05" y1="67.84" x2="86.96" y2="67.94"/><path class="cls-19" d="M104.65,76.4H89.9c2.41,7.36,13.26,6.48,23.77,6.48Z" transform="translate(8.51 5.3)"/><path class="cls-5" d="M95.44,34.8a4,4,0,0,0-2.33-2,4.83,4.83,0,0,0-3.11.35,10.79,10.79,0,0,0-2.78,1.71c-.42.36-.83.73-1.24,1.11a9.35,9.35,0,0,1-1.33,1.12A.27.27,0,0,1,84.3,37a.25.25,0,0,1,.08-.34l0,0c.83-.57,1.61-1.47,2.49-2.17a10.92,10.92,0,0,1,2.92-1.79,8.52,8.52,0,0,1,1.66-.47,4.08,4.08,0,0,1,1.77.1,4.46,4.46,0,0,1,2.64,2.25.24.24,0,1,1-.43.23h0Z" transform="translate(8.51 5.3)"/><path class="cls-5" d="M95.64,38.55A2,2,0,0,1,95,39a3.52,3.52,0,0,1-.6.2,6.14,6.14,0,0,1-1.19.19,7.58,7.58,0,0,1-2.37-.19,9.52,9.52,0,0,1-2.2-.87A10.55,10.55,0,0,1,86.73,37a.38.38,0,1,1,.5-.56h0v0A10.7,10.7,0,0,0,89,37.64a8.34,8.34,0,0,0,2,.8,7,7,0,0,0,2.14.17,5.9,5.9,0,0,0,1-.16,2.19,2.19,0,0,0,.81-.37l.06,0a.38.38,0,0,1,.53,0A.38.38,0,0,1,95.64,38.55Z" transform="translate(8.51 5.3)"/><path class="cls-5" d="M96,36.43a21.15,21.15,0,0,1-.73,3.79,10.46,10.46,0,0,1-1.67,3.52.24.24,0,0,1-.35,0,.25.25,0,0,1,0-.35h0a10,10,0,0,0,1.58-3.35,21.09,21.09,0,0,0,.71-3.69h0a.25.25,0,1,1,.5,0Z" transform="translate(8.51 5.3)"/><path class="cls-5" d="M97.71,34.86c-.49,0-.22.8-1.78.53a5.94,5.94,0,0,0-5-1.36c-2.71.41-5.84,2.38-8.56,3.2-.68.21,1.32.53,1.32.53,3.48-1,6.93-2.68,12-1.08,1,.1,1.67-.84,2.12-1.25C98,35.29,98.2,34.83,97.71,34.86Z" transform="translate(8.51 5.3)"/><path class="cls-16" d="M92.57,39c-.55-.27-1.15-1.49-.71-3.37" transform="translate(8.51 5.3)"/><circle class="cls-5" cx="102.32" cy="42.15" r="1.25"/><line class="cls-21" x1="113.17" y1="81.74" x2="74.45" y2="81.74"/><g class="cls-22"><path class="cls-8" d="M128.64,93.38c-38.66,0-49-.64-54.95-16.17A1.39,1.39,0,0,1,75,75.34h5.19a1.39,1.39,0,0,1,1.24.78C86.66,87,93.12,87.45,119.65,87.45H125a1.37,1.37,0,0,1,.91.34L129.54,91a1.38,1.38,0,0,1,.38,1.52A1.36,1.36,0,0,1,128.64,93.38Z" transform="translate(8.51 5.3)"/><path class="cls-5" d="M80.17,76.72c5.66,11.76,13,12.11,39.47,12.11H125L128.64,92C89.13,92,80.4,90.93,75,76.72h5.19m0-2.75H75a2.76,2.76,0,0,0-2.57,3.73C78.64,94,90,94.76,128.64,94.76a2.75,2.75,0,0,0,1.8-4.83l-3.65-3.18a2.77,2.77,0,0,0-1.81-.67h-5.34c-26.34,0-32.08-.36-37-10.55A2.74,2.74,0,0,0,80.17,74Z" transform="translate(8.51 5.3)"/><path class="cls-23" d="M80.17,76.72c5.66,11.76,13,12.11,39.47,12.11H125L128.64,92C89.13,92,80.4,90.93,75,76.72h5.19m0-2H75a2,2,0,0,0-1.65.86,2,2,0,0,0-.22,1.85c3.1,8.12,7.42,12.1,15.41,14.2,7.72,2,19.08,2.38,40.12,2.38A2,2,0,0,0,130,90.5l-3.65-3.18a2,2,0,0,0-1.32-.49h-5.34c-27.49,0-32.77-.81-37.67-11a2,2,0,0,0-1.8-1.13Z" transform="translate(8.51 5.3)"/><path class="cls-24" d="M128.64,92C89.13,92,80.4,90.93,75,76.72h5.19c6,12.51,13.94,12.11,44.81,12.11Z" transform="translate(8.51 5.3)"/><polyline class="cls-25" points="86.89 82.3 86.25 85.11 88.67 86.66 89.12 89.49 91.95 90 93.37 92.49 96.23 92.14 98.18 94.24 100.94 93.39 103.16 95.22 105.81 94.09 108.16 95.74 110.74 94.45 113.17 95.99 115.7 94.61 118.18 96.08 120.68 94.66 123.18 96.09 125.67 94.64 128.18 96.06 130.66 94.61 133.17 96.04 135.67 94.59"/><path class="cls-26" d="M68.73,75.23C72.41,91.38,82.93,95.91,99.5,97l41.66.76" transform="translate(8.51 5.3)"/><path class="cls-27" d="M68.73,75.23C72.41,91.38,82.93,95.91,99.5,97l41.66.76" transform="translate(8.51 5.3)"/><path class="cls-28" d="M68.73,75.23l.24,1" transform="translate(8.51 5.3)"/><path class="cls-29" d="M69.79,79C74.2,92.11,84.3,96,99.5,97l39.2.71" transform="translate(8.51 5.3)"/><line class="cls-28" x1="148.68" y1="103.04" x2="149.68" y2="103.06"/></g><path class="cls-8" d="M26.09,98.53c-1.61-2.83-4.22-4.37-4.17-6.48a2.29,2.29,0,0,1,2.14-2.46c1.38,0,2.07,1.39,2,3.15h.23c0-1.74.79-3.08,2.13-3a2.28,2.28,0,0,1,2.07,2.53C30.48,94.33,27.84,95.77,26.09,98.53Z" transform="translate(8.51 5.3)"/><path class="cls-8" d="M53.52,128.59c1.61,2.83,4.21,4.37,4.17,6.48a2.29,2.29,0,0,1-2.14,2.46c-1.38,0-2.07-1.39-2-3.15h-.24c0,1.74-.78,3.08-2.13,3.05a2.29,2.29,0,0,1-2.07-2.53C49.13,132.79,51.76,131.35,53.52,128.59Z" transform="translate(8.51 5.3)"/><path class="cls-8" d="M45.07,116c1.62,2.83,4.22,4.37,4.18,6.48a2.3,2.3,0,0,1-2.15,2.46c-1.37,0-2.06-1.39-2-3.15h-.23c0,1.75-.78,3.08-2.13,3.05a2.29,2.29,0,0,1-2.07-2.53C40.68,120.15,43.32,118.71,45.07,116Z" transform="translate(8.51 5.3)"/><path class="cls-8" d="M18.85,87.69c-1.61-2.83-4.22-4.37-4.17-6.48a2.29,2.29,0,0,1,2.14-2.46c1.37,0,2.07,1.39,2,3.15h.23c0-1.74.78-3.08,2.13-3.05a2.29,2.29,0,0,1,2.07,2.53C23.24,83.49,20.6,84.93,18.85,87.69Z" transform="translate(8.51 5.3)"/><rect class="cls-1" x="4.3" width="177.84" height="249.84"/><polyline class="cls-21" points="60.14 45.97 67.39 47.31 65.52 38.36 71.93 40.59 71.62 34.04 75.24 35.34"/><polyline class="cls-21" points="56.05 36.56 59.7 37.16 59.7 32.72 64.81 34.04 64.39 27.18 69.89 29.85 68.11 22.39 75.52 23.68 72.58 16.18"/><polyline class="cls-21" points="57.67 23.68 57.98 27.18 52.82 27.77 54.42 32.92 49.48 33.27 51.93 36.56 47.56 39.25 50.46 44.3 45.9 45.29 49.38 50.02 44.39 52.59 48.56 56.36 41.99 59.47 46.73 63.95 40.23 65.82 44.39 71.15 38.16 73.34"/><line class="cls-21" x1="128.74" y1="90.44" x2="167.65" y2="121.68"/><line class="cls-21" x1="69.02" y1="71.93" x2="19.78" y2="79.29"/><circle class="cls-23" cx="78.13" cy="72.59" r="10.43"/><path class="cls-5" d="M69.62,56.86a10.6,10.6,0,0,0-2.75.37c-2,.72-.23-.11-2.93,1.31l2.73,4.19,3-.87v-5Zm-9.07,5.29c-.5,1.31-.37-.28-1.36,5.14h0c0,.36,0,.13,0,.62l5-.29.69-3-4.34-2.47ZM65,70.07l-4.29,2.57.17.28A11,11,0,0,0,65,76.65l2.2-4.49A9.88,9.88,0,0,1,65,70.07Zm7.71,1.7-2.92.94.11,5c.49,0,0,0,1.53-.15A10.37,10.37,0,0,0,75.5,75.9l-2.83-4.13ZM80,66.42l-5,.41-.62,3,4.41,2.37c.82-1.87.22.07,1.2-4.09a9.69,9.69,0,0,0,0-1.71Zm-6-8.6-2.1,4.54,2.32,2,4.23-2.67c-.93-1.25-1.06-1.85-4.45-3.91Z" transform="translate(8.51 5.3)"/><path class="cls-5" d="M69.62,60.86a6.43,6.43,0,1,1-6.43,6.43,6.44,6.44,0,0,1,6.43-6.43m0-4A10.43,10.43,0,1,0,80,67.29,10.43,10.43,0,0,0,69.62,56.86Z" transform="translate(8.51 5.3)"/><path class="cls-23" d="M69.62,59.86a7.43,7.43,0,1,1-7.43,7.43,7.43,7.43,0,0,1,7.43-7.43m0-3A10.43,10.43,0,1,0,80,67.29,10.43,10.43,0,0,0,69.62,56.86Z" transform="translate(8.51 5.3)"/><circle class="cls-30" cx="78.13" cy="72.59" r="10.43"/><polygon class="cls-9" points="20.77 161.63 18.8 128.16 60.52 161.66 20.77 161.63"/><polygon class="cls-10" points="20.71 160.71 60.83 160.71 59.12 155.54 18.49 155.25 20.71 160.71"/><rect class="cls-8" x="46.14" y="151.37" width="2.91" height="2.91" transform="translate(-18.3 299.84) rotate(-135)"/><rect class="cls-8" x="41.82" y="151.37" width="2.91" height="2.91" transform="translate(-25.67 296.79) rotate(-135)"/><rect class="cls-8" x="37.51" y="151.37" width="2.91" height="2.91" transform="translate(-33.04 293.73) rotate(-135)"/><rect class="cls-8" x="33.19" y="151.37" width="2.91" height="2.91" transform="translate(-40.41 290.68) rotate(-135)"/><rect class="cls-8" x="28.87" y="151.37" width="2.91" height="2.91" transform="translate(-47.78 287.63) rotate(-135)"/><rect class="cls-8" x="24.56" y="151.37" width="2.91" height="2.91" transform="translate(-55.15 284.57) rotate(-135)"/><rect class="cls-8" x="20.24" y="151.37" width="2.91" height="2.91" transform="translate(-62.52 281.52) rotate(-135)"/><rect class="cls-8" x="15.92" y="151.37" width="2.91" height="2.91" transform="translate(-69.89 278.47) rotate(-135)"/><polygon class="cls-11" points="136.45 219.48 144.63 173.86 128.9 176.22 129.26 205.84 136.45 219.48"/><polygon class="cls-12" points="134.51 209.57 132.02 208.13 136.35 175.08 142.05 174.23 134.51 209.57"/><path class="cls-11" d="M108.91,172.61l-11.47,9.47L82.69,179c-2.83-10.17-14.51-16.11-14.51-16.11l-3.42,0-9-6.44H52L31.72,140.08c41.8,0,64.94-5.52,73.12,24.4Z" transform="translate(8.51 5.3)"/><polygon class="cls-12" points="82.09 223.88 82.04 228.51 87.88 229.64 92.09 235.95 106.22 233.1 117.9 236.92 121.2 232.55 128.34 232.46 136.35 219.76 134.69 210.02 127.09 204.65 127.58 198.68 121.42 196.98 117.55 189.64 82.09 223.88"/><path class="cls-14" d="M73.48,218.32a25,25,0,0,1-1.54-4.89c-.54-2.68.26-8.14.26-8.14s-4.73-6.89-6.33-8.14,1.23-3.14,1.78-3.3a5.87,5.87,0,0,1,2.5-.36,3,3,0,0,0,.62-.89" transform="translate(8.51 5.3)"/><path class="cls-15" d="M99.48,182.92c-4.28,0-7.22,2.58-7.22,7.58,0,3,1.52,6,4.33,6Z" transform="translate(8.51 5.3)"/><path class="cls-14" d="M68.5,185.5s-1.45-3.5-1.27-5.28,2.71-2.89,3-3a13.4,13.4,0,0,1,3.66,0c.89.22,18.68,3.82,18.68,3.82s6.44,1.38,6.88,1.87" transform="translate(8.51 5.3)"/><line class="cls-14" x1="77.15" y1="198.7" x2="77.01" y2="195.26"/><path class="cls-5" d="M73.41,208.15c.65.16,1.23.37,1.78.51a6.17,6.17,0,0,0,1.58.2,10.5,10.5,0,0,0,1.66-.17,15.7,15.7,0,0,0,1.67-.49,32.73,32.73,0,0,0,3.31-1.43c.54-.28,1.09-.56,1.65-.82s1.11-.55,1.69-.79a0,0,0,0,1,0,0v0a20.7,20.7,0,0,1-2.72,2.66A15.49,15.49,0,0,1,80.79,210a8.84,8.84,0,0,1-4.08.92,3.6,3.6,0,0,1-2.16-.86A3.46,3.46,0,0,1,73.41,208.15Z" transform="translate(8.51 5.3)"/><path class="cls-5" d="M68.75,185.4c-1.17,0-2.06.15-2.21.77s.44,2,1.18,1.73a31.8,31.8,0,0,1,4.53-.9c-3.86.73-5,1-5.07,1.78s.27.91.8,1.37h.73c3.47-3.05,5.55-2.49,6.57-4.19C73.53,186.77,69.92,185.4,68.75,185.4Z" transform="translate(8.51 5.3)"/><path class="cls-16" d="M76.26,185.87c-.22-.7-.58-1-1.07-.92" transform="translate(8.51 5.3)"/><path class="cls-14" d="M72.2,195s1.26-1,.66-2" transform="translate(8.51 5.3)"/><path class="cls-17" d="M109,184.34l3.87,7.34c-19.06,11.24-33.54,32.66-33.54,32.66l-5.83-1.13,0-4.62Z" transform="translate(8.51 5.3)"/><polygon class="cls-18" points="82.09 223.88 117.55 189.64 118.74 191.9 82.06 227.17 82.09 223.88"/><path class="cls-18" d="M112.9,191.68c-19.06,11.24-33.54,32.66-33.54,32.66l2,1.56s14.48-21.42,33.53-32.66Z" transform="translate(8.51 5.3)"/><path class="cls-19" d="M79.36,224.34l4.22,6.31A173.6,173.6,0,0,0,97,216.23Z" transform="translate(8.51 5.3)"/><path class="cls-19" d="M118.3,200l.77-6.59-6.17-1.7A122.8,122.8,0,0,1,97,216.23S116.58,205.13,118.3,200Z" transform="translate(8.51 5.3)"/><polygon class="cls-19" points="121.42 232.43 134.51 213.28 142.05 174.23 149.21 173.16 136.35 219.76 121.2 232.55 121.42 232.43"/><path class="cls-19" d="M126,204.45c-18.29,4.46-28.3,23.35-28.3,23.35l6.23,2.65s11.9-18.06,22.07-26.18" transform="translate(8.51 5.3)"/><polygon class="cls-20" points="105.1 201.83 107.64 187.68 117.55 189.64 105.1 201.83"/><line class="cls-16" x1="81.14" y1="171.09" x2="100.76" y2="170.99"/><line class="cls-16" x1="84.47" y1="173.82" x2="98.83" y2="173.72"/><line class="cls-16" x1="87.04" y1="176.55" x2="98" y2="176.44"/><line class="cls-16" x1="88.88" y1="179.28" x2="97.97" y2="179.17"/><line class="cls-16" x1="90.39" y1="182" x2="99.48" y2="181.9"/><path class="cls-19" d="M64.76,162.84H79.52c-2.41-7.36-13.27-6.48-23.77-6.48Z" transform="translate(8.51 5.3)"/><path class="cls-5" d="M74,204.44a4,4,0,0,0,2.34,2,4.9,4.9,0,0,0,3.11-.36,10.53,10.53,0,0,0,2.78-1.71c.42-.35.83-.73,1.24-1.11a8.24,8.24,0,0,1,1.33-1.11.24.24,0,0,1,.34.08.24.24,0,0,1-.07.33l0,0c-.84.56-1.62,1.47-2.49,2.17a11.15,11.15,0,0,1-2.92,1.78,7.9,7.9,0,0,1-1.66.48,4.07,4.07,0,0,1-1.77-.1,4.51,4.51,0,0,1-2.65-2.25.26.26,0,0,1,.1-.34.25.25,0,0,1,.34.1h0Z" transform="translate(8.51 5.3)"/><path class="cls-5" d="M73.78,200.7a1.59,1.59,0,0,1,.61-.42,3.81,3.81,0,0,1,.59-.21,7.1,7.1,0,0,1,1.2-.18,7.32,7.32,0,0,1,2.37.19,9,9,0,0,1,2.19.87,10.5,10.5,0,0,1,1.94,1.34.38.38,0,0,1,0,.53.37.37,0,0,1-.53,0h0a9.5,9.5,0,0,0-1.79-1.24,8.66,8.66,0,0,0-2-.79,6.42,6.42,0,0,0-2.14-.17,5.11,5.11,0,0,0-1,.16,2.13,2.13,0,0,0-.81.36l-.06.06a.38.38,0,0,1-.53,0A.36.36,0,0,1,73.78,200.7Z" transform="translate(8.51 5.3)"/><path class="cls-5" d="M73.43,202.82a21.09,21.09,0,0,1,.73-3.8,10.45,10.45,0,0,1,1.67-3.52.25.25,0,1,1,.39.31h0a9.89,9.89,0,0,0-1.58,3.34,21.22,21.22,0,0,0-.72,3.7h0a.25.25,0,0,1-.27.22.24.24,0,0,1-.22-.27Z" transform="translate(8.51 5.3)"/><path class="cls-5" d="M71.71,204.38c.49,0,.22-.8,1.77-.53a6,6,0,0,0,5,1.36c2.71-.4,5.84-2.37,8.56-3.2.68-.21-1.32-.53-1.32-.53-3.48,1-6.94,2.69-12,1.09-1-.11-1.67.84-2.12,1.25C71.41,204,71.21,204.42,71.71,204.38Z" transform="translate(8.51 5.3)"/><path class="cls-16" d="M76.85,200.24c.55.26,1.15,1.48.71,3.37" transform="translate(8.51 5.3)"/><circle class="cls-5" cx="84.12" cy="207.69" r="1.25"/><line class="cls-21" x1="73.28" y1="168.1" x2="111.99" y2="168.1"/><g class="cls-31"><path class="cls-8" d="M89.25,163.9a1.37,1.37,0,0,1-1.24-.78c-5.26-10.91-11.72-11.33-38.24-11.33H44.43a1.36,1.36,0,0,1-.9-.34l-3.65-3.17a1.38,1.38,0,0,1,.9-2.42c38.66,0,49,.64,54.94,16.18a1.4,1.4,0,0,1-.15,1.27,1.38,1.38,0,0,1-1.13.59Z" transform="translate(8.51 5.3)"/><path class="cls-5" d="M40.78,147.24c39.5,0,48.24,1.08,53.66,15.29H89.25c-5.66-11.76-13-12.12-39.48-12.12H44.43l-3.65-3.18m0-2.75a2.75,2.75,0,0,0-1.8,4.82l3.65,3.18a2.72,2.72,0,0,0,1.8.68h5.34c26.34,0,32.09.36,37,10.56a2.76,2.76,0,0,0,2.48,1.56h5.19A2.76,2.76,0,0,0,97,161.55c-6.23-16.34-17.64-17.06-56.23-17.06Z" transform="translate(8.51 5.3)"/><path class="cls-23" d="M40.78,147.24c39.5,0,48.24,1.08,53.66,15.29H89.25c-5.66-11.76-13-12.12-39.48-12.12H44.43l-3.65-3.18m0-2a2,2,0,0,0-1.31,3.51l3.65,3.17a2,2,0,0,0,1.31.5h5.34c27.5,0,32.78.82,37.67,11a2,2,0,0,0,1.81,1.14h5.19a2,2,0,0,0,1.64-.87,2,2,0,0,0,.22-1.85c-3.09-8.12-7.41-12.1-15.4-14.19-7.72-2-19.09-2.38-40.12-2.38Z" transform="translate(8.51 5.3)"/><path class="cls-24" d="M40.78,147.24c39.5,0,48.24,1.08,53.66,15.29H89.25c-6-12.52-13.94-12.11-44.82-12.11Z" transform="translate(8.51 5.3)"/><polyline class="cls-25" points="99.56 167.54 100.19 164.73 97.77 163.18 97.33 160.35 94.49 159.84 93.08 157.35 90.22 157.7 88.26 155.6 85.51 156.45 83.28 154.62 80.64 155.75 78.28 154.1 75.71 155.39 73.27 153.85 70.74 155.23 68.26 153.75 65.76 155.18 63.27 153.75 60.77 155.2 58.27 153.78 55.78 155.23 53.27 153.8 50.77 155.25"/><path class="cls-26" d="M100.68,164C97,147.86,86.49,143.33,69.92,142.25l-41.67-.76" transform="translate(8.51 5.3)"/><path class="cls-27" d="M100.68,164C97,147.86,86.49,143.33,69.92,142.25l-41.67-.76" transform="translate(8.51 5.3)"/><path class="cls-28" d="M100.68,164c-.07-.33-.15-.65-.23-1" transform="translate(8.51 5.3)"/><path class="cls-29" d="M99.63,160.23c-4.41-13.1-14.51-17-29.71-18l-39.21-.72" transform="translate(8.51 5.3)"/><line class="cls-28" x1="37.77" y1="146.8" x2="36.77" y2="146.78"/></g><rect class="cls-1" x="4.3" width="177.84" height="249.84"/><polyline class="cls-21" points="126.3 203.87 119.05 202.53 120.92 211.48 114.51 209.25 114.83 215.8 111.2 214.5"/><polyline class="cls-21" points="130.39 213.28 126.75 212.68 126.75 217.12 121.64 215.8 122.06 222.66 116.56 219.99 118.33 227.46 110.92 226.16 113.86 233.66"/><polyline class="cls-21" points="128.78 226.16 128.46 222.66 133.62 222.06 132.02 216.92 136.96 216.57 134.51 213.28 138.88 210.59 135.98 205.54 140.55 204.55 137.07 199.81 142.05 197.25 137.88 193.48 144.46 190.37 139.71 185.89 146.21 184.02 142.05 178.69 148.28 176.5"/><line class="cls-21" x1="57.7" y1="159.4" x2="18.8" y2="128.16"/><line class="cls-21" x1="117.42" y1="177.91" x2="166.66" y2="170.55"/><circle class="cls-23" cx="108.31" cy="177.25" r="10.43"/><path class="cls-5" d="M99.8,161.53c-4.28.5-1-.25-5.68,1.68l2.73,4.19,3-.87v-5Zm-9.07,5.28c-.32,1.11-.79.06-1.36,5.15h0c0,.37,0,.06,0,.62l5-.3.69-3-4.34-2.47Zm4.41,7.93-4.29,2.57c1,1.36-.21.17,2.35,2.72a8.74,8.74,0,0,0,2,1.29l2.2-4.49a10.13,10.13,0,0,1-2.27-2.09Zm7.71,1.7-2.92.94.11,5a12.21,12.21,0,0,0,4.42-1.1,10.74,10.74,0,0,0,1.22-.71l-2.83-4.13Zm7.34-5.35-5,.41-.62,3,4.41,2.36a9.77,9.77,0,0,0,1.18-3.86,11.33,11.33,0,0,0,0-1.65h0l0-.28Zm-6-8.6-2.1,4.54,2.32,2,4.23-2.68a13.55,13.55,0,0,0-2.54-2.75,9.1,9.1,0,0,0-1.91-1.15Z" transform="translate(8.51 5.3)"/><path class="cls-5" d="M99.8,165.53A6.43,6.43,0,1,1,93.37,172a6.43,6.43,0,0,1,6.43-6.43m0-4A10.43,10.43,0,1,0,110.22,172,10.43,10.43,0,0,0,99.8,161.53Z" transform="translate(8.51 5.3)"/><path class="cls-23" d="M99.8,164.53A7.43,7.43,0,1,1,92.37,172a7.43,7.43,0,0,1,7.43-7.43m0-3A10.43,10.43,0,1,0,110.22,172,10.43,10.43,0,0,0,99.8,161.53Z" transform="translate(8.51 5.3)"/><circle class="cls-30" cx="108.31" cy="177.25" r="10.43"/><polyline class="cls-21" points="84.72 23.9 88.01 25.05 88.57 19.7 94.04 22.28 94.04 14.79"/><path class="cls-23" d="M116.81,162.79c-4.45,0-7.15-1.43-10-5.28l-19.28-29.1-9.11,6.12L52.6,96.44,10.26,158.33V130.91l.34-.51c.31-.46,30.95-46.17,31.57-47.13,2.95-4.53,6.46-6.82,10.44-6.82,4.45,0,7.15,1.43,10,5.28.24.32,12.78,19.27,19.28,29.1l9.1-6.12,25.85,38.1,42.35-61.89v27.42l-.34.5c-.31.46-30.95,46.17-31.58,47.13C124.3,160.5,120.78,162.79,116.81,162.79Z" transform="translate(8.51 5.3)"/><path class="cls-6" d="M52.61,78.45c3.91,0,6,1.18,8.36,4.46.24.34,20.33,30.7,20.33,30.7l9.13-6.13,26.38,38.88,40.35-59v20.35s-30.95,46.17-31.59,47.15c-2,3-4.8,5.91-8.76,5.91s-6-1.18-8.36-4.46l-20.34-30.7L79,131.76,52.61,92.89l-40.35,59V131.52s31-46.17,31.59-47.16c2-3,4.79-5.91,8.76-5.91m0-4c-4.7,0-8.77,2.6-12.11,7.73-.56.86-20.89,31.19-31.57,47.11l-.67,1v34.49l7.3-10.67L52.6,100l23.08,34,2.24,3.29,3.3-2.22L87,131.2l18.11,27.34.06.08,0,.07c3.22,4.39,6.47,6.1,11.59,6.1,4.69,0,8.77-2.6,12.11-7.73.56-.85,20.89-31.19,31.56-47.1l.68-1V74.45l-7.3,10.67-37,54.13-23.08-34-2.24-3.3-3.3,2.22-5.78,3.89c-17.94-27.11-18.15-27.4-18.23-27.5-3.21-4.39-6.46-6.1-11.58-6.1Z" transform="translate(8.51 5.3)"/><path class="cls-8" d="M52.61,78.45c3.91,0,6,1.18,8.36,4.46.24.34,20.33,30.7,20.33,30.7l9.13-6.13,26.38,38.88,40.35-59v20.35s-30.95,46.17-31.59,47.15c-2,3-4.8,5.91-8.76,5.91s-6-1.18-8.36-4.46l-20.34-30.7L79,131.76,52.61,92.89l-40.35,59V131.52s31-46.17,31.59-47.16c2-3,4.79-5.91,8.76-5.91m0-2c-4,0-7.49,2.29-10.44,6.82-.62,1-31.26,46.67-31.57,47.13l-.34.51v27.42L13.91,153,52.6,96.44l24.74,36.44,1.11,1.65,1.66-1.11,7.45-5,19.22,29,0,0,0,0c2.82,3.85,5.52,5.28,10,5.28,4,0,7.49-2.29,10.43-6.82.63-1,31.27-46.67,31.58-47.13l.34-.5V80.92l-3.65,5.33-38.7,56.56L92.08,106.36,91,104.71l-1.65,1.11-7.45,5c-6.5-9.83-19-28.78-19.28-29.1-2.82-3.85-5.52-5.28-10-5.28Z" transform="translate(8.51 5.3)"/><path class="cls-5" d="M52.61,79.2c3.56,0,5.45,1,7.75,4.15.31.45,13.43,20.27,20.32,30.68l.41.63.63-.42,8.51-5.72,26,38.26.61.91.63-.91,39-57V107.5c-2.45,3.66-30.85,46-31.47,47-2.44,3.75-5.1,5.57-8.13,5.57-3.57,0-5.45-1-7.74-4.12l-20.33-30.7-.42-.63-.62.42-8.51,5.71-26-38.25-.62-.91-.62.9-39,57v-17.7c2.45-3.65,30.84-46,31.47-47,2.44-3.75,5.1-5.57,8.13-5.57m0-.75c-4,0-6.78,2.87-8.76,5.91-.64,1-31.59,47.16-31.59,47.16v20.34l40.35-59L79,131.76l9.12-6.13,20.34,30.7c2.4,3.28,4.45,4.46,8.36,4.46s6.78-2.87,8.76-5.91c.64-1,31.59-47.15,31.59-47.15V87.38l-40.35,59L90.43,107.48l-9.13,6.13S61.21,83.25,61,82.91c-2.41-3.28-4.45-4.46-8.36-4.46Z" transform="translate(8.51 5.3)"/><circle class="cls-19" cx="125.32" cy="159.15" r="4.33"/><line class="cls-32" x1="181.57" y1="84.37" x2="177.41" y2="90.48"/><line class="cls-32" x1="180.86" y1="83.88" x2="176.69" y2="90"/><line class="cls-32" x1="180.15" y1="83.39" x2="175.98" y2="89.51"/><line class="cls-32" x1="179.43" y1="82.91" x2="175.26" y2="89.02"/><line class="cls-32" x1="178.72" y1="82.42" x2="174.55" y2="88.54"/><line class="cls-32" x1="178.01" y1="81.94" x2="173.84" y2="88.05"/><line class="cls-32" x1="177.29" y1="81.45" x2="173.12" y2="87.56"/><line class="cls-33" x1="176.56" y1="91.72" x2="172.39" y2="97.84"/><line class="cls-33" x1="175.85" y1="91.23" x2="171.68" y2="97.35"/><line class="cls-33" x1="175.13" y1="90.75" x2="170.97" y2="96.86"/><line class="cls-33" x1="174.42" y1="90.26" x2="170.25" y2="96.38"/><line class="cls-33" x1="173.71" y1="89.77" x2="169.54" y2="95.89"/><line class="cls-33" x1="172.99" y1="89.29" x2="168.83" y2="95.4"/><line class="cls-33" x1="172.28" y1="88.8" x2="168.11" y2="94.92"/><line class="cls-32" x1="171.55" y1="99.07" x2="167.38" y2="105.19"/><line class="cls-32" x1="170.84" y1="98.59" x2="166.67" y2="104.7"/><line class="cls-32" x1="170.12" y1="98.1" x2="165.95" y2="104.22"/><line class="cls-32" x1="169.41" y1="97.61" x2="165.24" y2="103.73"/><line class="cls-32" x1="168.69" y1="97.13" x2="164.53" y2="103.24"/><line class="cls-32" x1="167.98" y1="96.64" x2="163.81" y2="102.76"/><line class="cls-32" x1="167.27" y1="96.16" x2="163.1" y2="102.27"/><line class="cls-33" x1="166.54" y1="106.43" x2="162.37" y2="112.54"/><line class="cls-33" x1="165.11" y1="105.45" x2="160.94" y2="111.57"/><line class="cls-33" x1="163.68" y1="104.48" x2="159.51" y2="110.6"/><line class="cls-33" x1="162.26" y1="103.51" x2="158.09" y2="109.62"/><line class="cls-32" x1="161.52" y1="113.78" x2="157.36" y2="119.9"/><line class="cls-32" x1="160.1" y1="112.81" x2="155.93" y2="118.92"/><line class="cls-32" x1="158.67" y1="111.83" x2="154.5" y2="117.95"/><line class="cls-32" x1="157.24" y1="110.86" x2="153.07" y2="116.98"/><line class="cls-33" x1="156.51" y1="121.13" x2="152.34" y2="127.25"/><line class="cls-33" x1="155.08" y1="120.16" x2="150.92" y2="126.28"/><line class="cls-33" x1="153.66" y1="119.19" x2="149.49" y2="125.3"/><line class="cls-33" x1="152.23" y1="118.22" x2="148.06" y2="124.33"/><line class="cls-32" x1="151.5" y1="128.49" x2="147.33" y2="134.6"/><line class="cls-32" x1="150.07" y1="127.51" x2="145.9" y2="133.63"/><line class="cls-32" x1="148.65" y1="126.54" x2="144.48" y2="132.66"/><line class="cls-32" x1="147.22" y1="125.57" x2="143.05" y2="131.68"/><line class="cls-33" x1="146.49" y1="135.84" x2="142.32" y2="141.96"/><line class="cls-33" x1="145.06" y1="134.87" x2="140.89" y2="140.98"/><line class="cls-33" x1="143.63" y1="133.89" x2="139.46" y2="140.01"/><line class="cls-33" x1="142.21" y1="132.92" x2="138.04" y2="139.04"/><line class="cls-32" x1="141.47" y1="143.19" x2="137.31" y2="149.31"/><line class="cls-32" x1="140.05" y1="142.22" x2="135.88" y2="148.34"/><line class="cls-32" x1="138.62" y1="141.25" x2="134.45" y2="147.36"/><line class="cls-32" x1="137.19" y1="140.28" x2="133.02" y2="146.39"/><line class="cls-33" x1="136.46" y1="150.55" x2="132.29" y2="156.66"/><line class="cls-33" x1="135.03" y1="149.57" x2="130.87" y2="155.69"/><line class="cls-33" x1="133.61" y1="148.6" x2="129.44" y2="154.72"/><line class="cls-33" x1="132.18" y1="147.63" x2="128.01" y2="153.74"/><line class="cls-33" x1="98.28" y1="118.18" x2="102.46" y2="124.3"/><line class="cls-33" x1="96.86" y1="119.16" x2="101.03" y2="125.27"/><line class="cls-33" x1="95.43" y1="120.13" x2="99.6" y2="126.25"/><line class="cls-33" x1="94" y1="121.11" x2="98.18" y2="127.22"/><line class="cls-32" x1="103.3" y1="125.53" x2="107.47" y2="131.65"/><line class="cls-32" x1="101.88" y1="126.51" x2="106.05" y2="132.62"/><line class="cls-32" x1="100.45" y1="127.48" x2="104.62" y2="133.59"/><line class="cls-32" x1="99.02" y1="128.46" x2="103.2" y2="134.57"/><line class="cls-33" x1="108.32" y1="132.88" x2="112.49" y2="139"/><line class="cls-33" x1="106.89" y1="133.86" x2="111.07" y2="139.97"/><line class="cls-33" x1="105.47" y1="134.83" x2="109.64" y2="140.94"/><line class="cls-33" x1="104.04" y1="135.81" x2="108.21" y2="141.92"/><line class="cls-32" x1="113.34" y1="140.23" x2="117.51" y2="146.35"/><line class="cls-32" x1="111.91" y1="141.21" x2="116.08" y2="147.32"/><line class="cls-32" x1="110.48" y1="142.18" x2="114.66" y2="148.29"/><line class="cls-32" x1="109.06" y1="143.16" x2="113.23" y2="149.27"/><line class="cls-33" x1="118.36" y1="147.58" x2="122.53" y2="153.7"/><line class="cls-33" x1="116.93" y1="148.56" x2="121.1" y2="154.67"/><line class="cls-33" x1="115.5" y1="149.53" x2="119.68" y2="155.64"/><line class="cls-33" x1="114.08" y1="150.5" x2="118.25" y2="156.62"/><rect class="cls-1" x="4.3" width="177.84" height="249.84"/><circle class="cls-19" cx="61.18" cy="90.94" r="4.33"/><line class="cls-32" x1="4.91" y1="165.75" x2="9.07" y2="159.63"/><line class="cls-32" x1="5.63" y1="166.24" x2="9.79" y2="160.12"/><line class="cls-32" x1="6.34" y1="166.73" x2="10.5" y2="160.6"/><line class="cls-32" x1="7.06" y1="167.21" x2="11.22" y2="161.09"/><line class="cls-32" x1="7.77" y1="167.7" x2="11.93" y2="161.57"/><line class="cls-32" x1="8.49" y1="168.18" x2="12.65" y2="162.06"/><line class="cls-32" x1="9.2" y1="168.67" x2="13.36" y2="162.54"/><line class="cls-33" x1="9.92" y1="158.39" x2="14.08" y2="152.27"/><line class="cls-33" x1="10.63" y1="158.88" x2="14.79" y2="152.76"/><line class="cls-33" x1="11.34" y1="159.36" x2="15.5" y2="153.24"/><line class="cls-33" x1="12.06" y1="159.85" x2="16.22" y2="153.73"/><line class="cls-33" x1="12.77" y1="160.34" x2="16.93" y2="154.21"/><line class="cls-33" x1="13.49" y1="160.82" x2="17.65" y2="154.7"/><line class="cls-33" x1="14.2" y1="161.31" x2="18.36" y2="155.18"/><line class="cls-32" x1="14.92" y1="151.03" x2="19.08" y2="144.91"/><line class="cls-32" x1="15.63" y1="151.52" x2="19.79" y2="145.4"/><line class="cls-32" x1="16.35" y1="152" x2="20.51" y2="145.88"/><line class="cls-32" x1="17.06" y1="152.49" x2="21.22" y2="146.37"/><line class="cls-32" x1="17.77" y1="152.97" x2="21.93" y2="146.85"/><line class="cls-32" x1="18.49" y1="153.46" x2="22.65" y2="147.34"/><line class="cls-32" x1="19.2" y1="153.95" x2="23.36" y2="147.82"/><line class="cls-33" x1="19.92" y1="143.67" x2="24.08" y2="137.55"/><line class="cls-33" x1="21.35" y1="144.64" x2="25.51" y2="138.52"/><line class="cls-33" x1="22.78" y1="145.61" x2="26.94" y2="139.49"/><line class="cls-33" x1="24.21" y1="146.58" x2="28.37" y2="140.46"/><line class="cls-32" x1="24.92" y1="136.31" x2="29.08" y2="130.19"/><line class="cls-32" x1="26.35" y1="137.28" x2="30.51" y2="131.16"/><line class="cls-32" x1="27.78" y1="138.25" x2="31.94" y2="132.13"/><line class="cls-32" x1="29.21" y1="139.22" x2="33.37" y2="133.1"/><line class="cls-33" x1="29.92" y1="128.95" x2="34.08" y2="122.83"/><line class="cls-33" x1="31.35" y1="129.92" x2="35.51" y2="123.8"/><line class="cls-33" x1="32.78" y1="130.89" x2="36.94" y2="124.77"/><line class="cls-33" x1="34.21" y1="131.86" x2="38.37" y2="125.74"/><line class="cls-32" x1="34.93" y1="121.59" x2="39.09" y2="115.47"/><line class="cls-32" x1="36.35" y1="122.56" x2="40.51" y2="116.44"/><line class="cls-32" x1="37.78" y1="123.53" x2="41.94" y2="117.41"/><line class="cls-32" x1="39.21" y1="124.5" x2="43.37" y2="118.38"/><line class="cls-33" x1="39.93" y1="114.23" x2="44.09" y2="108.11"/><line class="cls-33" x1="41.36" y1="115.2" x2="45.52" y2="109.08"/><line class="cls-33" x1="42.78" y1="116.17" x2="46.94" y2="110.05"/><line class="cls-33" x1="44.21" y1="117.14" x2="48.37" y2="111.02"/><line class="cls-32" x1="44.93" y1="106.87" x2="49.09" y2="100.75"/><line class="cls-32" x1="46.36" y1="107.84" x2="50.52" y2="101.72"/><line class="cls-32" x1="47.79" y1="108.81" x2="51.95" y2="102.69"/><line class="cls-32" x1="49.21" y1="109.78" x2="53.37" y2="103.66"/><line class="cls-33" x1="49.93" y1="99.51" x2="54.09" y2="93.39"/><line class="cls-33" x1="51.36" y1="100.48" x2="55.52" y2="94.36"/><line class="cls-33" x1="52.79" y1="101.45" x2="56.95" y2="95.33"/><line class="cls-33" x1="54.22" y1="102.42" x2="58.38" y2="96.3"/><line class="cls-33" x1="88.34" y1="131.56" x2="84.16" y2="125.45"/><line class="cls-33" x1="89.76" y1="130.59" x2="85.59" y2="124.48"/><line class="cls-33" x1="91.19" y1="129.62" x2="87.01" y2="123.5"/><line class="cls-33" x1="92.61" y1="128.64" x2="88.44" y2="122.53"/><line class="cls-32" x1="83.32" y1="124.21" x2="79.14" y2="118.1"/><line class="cls-32" x1="84.74" y1="123.24" x2="80.57" y2="117.13"/><line class="cls-32" x1="86.17" y1="122.27" x2="82" y2="116.15"/><line class="cls-32" x1="87.6" y1="121.29" x2="83.42" y2="115.18"/><line class="cls-33" x1="78.3" y1="116.86" x2="74.13" y2="110.75"/><line class="cls-33" x1="79.73" y1="115.89" x2="75.55" y2="109.78"/><line class="cls-33" x1="81.15" y1="114.92" x2="76.98" y2="108.8"/><line class="cls-33" x1="82.58" y1="113.94" x2="78.4" y2="107.83"/><line class="cls-32" x1="73.28" y1="109.51" x2="69.11" y2="103.4"/><line class="cls-32" x1="74.71" y1="108.54" x2="70.53" y2="102.43"/><line class="cls-32" x1="76.13" y1="107.57" x2="71.96" y2="101.45"/><line class="cls-32" x1="77.56" y1="106.59" x2="73.39" y2="100.48"/><line class="cls-33" x1="68.26" y1="102.16" x2="64.09" y2="96.05"/><line class="cls-33" x1="69.69" y1="101.19" x2="65.52" y2="95.08"/><line class="cls-33" x1="71.12" y1="100.22" x2="66.94" y2="94.1"/><line class="cls-33" x1="72.54" y1="99.24" x2="68.37" y2="93.13"/><line class="cls-32" x1="90.69" y1="122.45" x2="94.6" y2="128.14"/><line class="cls-32" x1="92.03" y1="121.53" x2="95.94" y2="127.22"/></g><path class="cls-34" d="M6.93,31.45V28.81H9.32v-18H6.93V8.19h7.66v2.64H12.54v8.53a4.94,4.94,0,0,1,.84-.13l4.34-8.4H16.05V8.19H23v2.64H21l-4.4,8.31c2.07.09,4.06,1,4.06,4.4v5.37h2.82v2.54H17.57V24.53c0-2.45-1-3-2.24-3a22.87,22.87,0,0,0-2.79.18v7.13h2.55v2.64Z" transform="translate(8.51 5.3)"/><path class="cls-34" d="M15.21,57.61c-3.51-5.88-9-9-9-13.44,0-2.73,1.73-5.27,4.4-5.27,2.89,0,4.4,2.84,4.4,6.54h.49c0-3.67,1.51-6.51,4.34-6.51s4.46,2.54,4.46,5.24C24.25,48.6,18.77,51.73,15.21,57.61Z" transform="translate(8.51 5.3)"/><path class="cls-34" d="M162.48,207.8v2.63H160.1v18h2.38v2.63h-7.66v-2.63h2.05v-8.53a6.28,6.28,0,0,1-.84.12l-4.34,8.41h1.68v2.63h-7v-2.63h2l4.4-8.31c-2.08-.1-4.06-1-4.06-4.41v-5.36h-2.82V207.8h5.92v6.91c0,2.45,1,3,2.23,3a20.57,20.57,0,0,0,2.79-.19v-7.13h-2.54V207.8Z" transform="translate(8.51 5.3)"/><path class="cls-34" d="M154.21,181.63c3.51,5.89,9,9,9,13.45,0,2.72-1.73,5.26-4.4,5.26-2.89,0-4.4-2.83-4.4-6.53H154c0,3.67-1.52,6.5-4.35,6.5s-4.45-2.53-4.45-5.23C145.17,190.65,150.65,187.52,154.21,181.63Z" transform="translate(8.51 5.3)"/><line class="cls-35" x1="23.72" y1="67.84" x2="23.72" y2="161.19"/><line class="cls-35" x1="162.72" y1="182" x2="162.72" y2="88.53"/></g></g></svg>